<svg viewBox="0 0 200 44" fill="none" xmlns="http://www.w3.org/2000/svg">
  <path d="M15.625 1.154S-.232 4.364 1.1 21.493C2.435 38.62 24.517 43.617 34.816 33.34c0 0-17.858 8.92-27.12-4.425-9.262-13.346.445-25.265 7.929-27.761Z" fill="#6BA43A"/>
  <path d="M33.567 3.67c8.722 5.898 10.39 18.095 3.845 26.135-6.402 8.144-19.081 9.698-27.22 3.075 8.234 5.801 20.336 4.255 26.484-3.621 6.346-7.792 4.823-19.351-3.11-25.589Z" fill="#C89211"/>
  <path d="M2.405 24.076C-.364 16.04 3.872 6.58 11.453 2.458c2.508-1.4 5.335-2.249 8.164-2.367-2.684.855-5.172 2.019-7.37 3.551-6.763 4.605-10.34 12.495-9.842 20.434Z" fill="#4A8B2C"/>
  <path d="M37.854 16.305c.156 6.472-4.148 12.724-10.377 15.166-9.765 4.043-21.32-1.89-23.264-11.959C2.054 9.528 10.36-.183 20.954.03c-3.31.04-6.603 1.01-9.338 2.815-8.702 5.607-9.94 17.757-2.48 24.844C19.786 37.803 37.6 30.671 37.853 16.305Z" fill="#6BA43A"/>
  <path d="M39.224 13.37c2.002 6.05.282 13.076-4.244 17.707-12.918 13.085-35.393 2.919-33.222-15C2.663 8.805 8.446 2.422 15.838.705 8.678 2.768 3.25 9.003 2.479 16.161 1.316 26.268 9.114 35.348 19.652 36.096c12.89.879 22.742-10.702 19.573-22.725Z" fill="#4A8B2C"/>
  <path d="M41.487 18c.393 6.354-3.124 12.623-8.722 15.968-4.854 2.97-11.11 3.619-16.528 1.772C4.626 31.803-.293 18.5 6.246 8.427 9.719 3.036 16.229-.353 22.828.03 16.476.331 10.54 3.752 7.397 9.094 1.32 19.316 7.359 32.4 19.357 34.796 30.53 37.041 40.939 28.901 41.487 18Z" fill="#00783F"/>
  <path d="M37.677 9.842c3.21 6.217 2.071 14.045-2.78 19.185C24.002 40.592 4.132 33.798 3.247 18.208 2.91 12.18 6.071 6.153 11.331 2.874c.741-.47 1.52-.876 2.318-1.246A18.355 18.355 0 0 0 9.287 4.5c-5.99 5.288-7.524 14.088-3.62 20.954 5.79 10.42 20.802 12.167 29.017 3.389 4.832-5.012 6.055-12.83 2.993-19.001Z" fill="#6BA43A"/>
  <path d="M33.568 3.67C39.71 8.085 42.53 15.997 40.5 23.121 35.96 39.105 13.771 41.87 5.152 27.528c-3.33-5.545-3.346-12.715-.008-18.254a20.583 20.583 0 0 1 1.57-2.255c-1.126 1.448-2.05 3.04-2.698 4.74-3.035 7.795-.102 16.816 7.029 21.525 10.689 7.192 25.786 1.89 29.182-10.233 2.069-6.998-.669-14.944-6.66-19.38Z" fill="#4A8B2C"/>
  <path d="M41.09 19.42c.353 12.215-11.725 21.812-24.132 19.353C-.914 35.284-5.538 12.885 9.667 3.15 13.01 1.056 16.997-.059 20.954.03c-1.973.05-3.938.347-5.818.923C4.346 4.256-1.51 15.573 2.332 25.838c2.275 6.197 8.06 11.017 14.763 12.271C29.4 40.502 40.868 31.48 41.09 19.42Z" fill="#C89211"/>
  <path d="M37.009 9.344c3.464 6.121 2.64 14.031-2.021 19.368-7.154 8.497-21.113 8.465-28.185-.113-5.879-6.86-5.297-17.341 1.352-23.523a18.555 18.555 0 0 1 4.312-3.02 18.533 18.533 0 0 0-4.281 3.052C1.643 11.31 1.049 21.693 6.923 28.504c7.031 8.457 20.855 8.539 27.97.134 4.637-5.27 5.504-13.205 2.116-19.294Z" fill="#C89211"/>
  <path d="M33.984 28.006c.55 0 .995-.429.995-.958 0-.53-.445-.958-.995-.958s-.995.429-.995.958c0 .53.446.958.995.958Z" fill="#6BA43A"/>
  <path d="M.995 10.114c.55 0 .995-.43.995-.958 0-.53-.446-.959-.995-.959-.55 0-.995.43-.995.959 0 .529.445.958.995.958Z" fill="#C89211"/>
  <path d="M14.207 38.957c.6 0 1.085-.467 1.085-1.044s-.486-1.044-1.085-1.044-1.084.467-1.084 1.044.486 1.044 1.084 1.044Z" fill="#00783F"/>
  <path d="M31.37 9.982c-.484 0-.875.376-.875.842 0 .028.002.058.004.084-.166.288-.3.59-.403.902.455-.074.941-.132 1.46-.166a.845.845 0 0 0 .684-.82c0-.466-.39-.842-.87-.842Zm-.777-.85c0-.466-.39-.843-.875-.843-.482 0-.872.377-.872.843 0 .112.023.22.064.318a11.904 11.904 0 0 1-2.108 3.365 12.304 12.304 0 0 1 1.948-.71 13.16 13.16 0 0 0 1.163-2.153.85.85 0 0 0 .68-.82Zm-2.746-2.083c0-.464-.39-.84-.875-.84-.482 0-.872.376-.872.84a.82.82 0 0 0 .045.268 1.85 1.85 0 0 1-1.082.698c.092-.32.167-.646.237-.974a.84.84 0 0 0 .52-.768c0-.464-.391-.84-.875-.84-.482 0-.872.376-.872.84 0 .174.053.332.147.466-.34 1.68-.99 3.279-1.932 4.741V6.45c.183-.153.3-.38.3-.631 0-.466-.391-.842-.875-.842-.482 0-.873.376-.873.842 0 .264.127.5.325.654v7.128a16.904 16.904 0 0 0-3.228-1.669 4.572 4.572 0 0 0-.187-1.25c1.437-.844 2.29-2.38 2.24-3.989a.814.814 0 0 0 .173-.5c0-.466-.39-.842-.872-.842-.484 0-.875.376-.875.842 0 .32.185.596.455.738a3.411 3.411 0 0 1-1.55 2.733 4.97 4.97 0 0 0-1.389-1.559.857.857 0 0 0-.87-.804c-.484 0-.875.376-.875.842 0 .464.39.84.875.84a.829.829 0 0 0 .189-.02 3.779 3.779 0 0 1 1.535 2.571 17.492 17.492 0 0 0-3.82-.712.882.882 0 0 0-.748-.41c-.484 0-.874.376-.874.84 0 .466.39.842.874.842a.889.889 0 0 0 .563-.2c.305.02.609.048.908.084a3.59 3.59 0 0 1-1.884 1.079.885.885 0 0 0-.667-.298c-.484 0-.874.376-.874.84 0 .464.39.842.874.842.258 0 .488-.11.648-.28 1.259-.204 2.416-.898 3.147-1.98 1.6.324 3.128.888 4.549 1.676a8.229 8.229 0 0 1-1.938.232v1.08a9.29 9.29 0 0 0 3.17-.552c.151.104.3.208.448.316v2.775c.543-.634 1.074-1.28 1.654-1.907a9.67 9.67 0 0 1-.532.238v-2.662a15.256 15.256 0 0 0 2.412-4.237 2.993 2.993 0 0 0 1.842-.655c.22-.178.411-.382.565-.604.424-.066.744-.412.744-.832Zm-2.223 4.485a.785.785 0 0 0-.802-.772.785.785 0 0 0-.801.772c0 .188.068.36.184.494.021.737.138 1.46.345 2.16.303-.235.628-.465.976-.681a7.435 7.435 0 0 1-.195-1.375.765.765 0 0 0 .293-.598Zm-7.22 4.748c-.445 0-.804.344-.804.772 0 .428.36.772.804.772a.816.816 0 0 0 .349-.078c.55.254 1.068.566 1.541.936.252-.27.494-.542.733-.82a8.957 8.957 0 0 0-1.9-1.138.8.8 0 0 0-.723-.444Zm-2.115 2.178c.272-.19.495-.442.653-.74.253-.49.297-1.044.116-1.563l-1.064.338a.94.94 0 0 1-.058.74.984.984 0 0 1-.316.357 4.12 4.12 0 0 1-.186-3.845l-1.024-.442c-.919 1.976-.484 4.209.916 5.737a8.039 8.039 0 0 1-3.546-2.11c.002-.022.004-.044.004-.066v-.002c0-.4-.29-.735-.68-.819a1.019 1.019 0 0 0-.267-.016c-.447.036-.8.396-.8.837 0 .466.393.842.875.842.004 0 .012 0 .016-.002a.61.61 0 0 0 .063-.004 9.057 9.057 0 0 0 3.986 2.37 9.456 9.456 0 0 0 2.636.379c.243 0 .488-.01.73-.03.611-.433 1.143-.907 1.635-1.407a8.243 8.243 0 0 1-2.37.35 4.409 4.409 0 0 1-1.319-.904Z" fill="#C89211"/>
  <path d="M30.982 17.118c.644 0 1.284-.104 1.892-.304a.899.899 0 0 0 .468.132c.482 0 .872-.377.872-.84 0-.467-.39-.843-.872-.843a.877.877 0 0 0-.808.52c-.46.154-.941.242-1.431.254a13.24 13.24 0 0 0 1.092-1.528c.06-.098.118-.2.177-.302l.056-.006a.852.852 0 0 0 .723-.828c0-.464-.393-.84-.875-.84a.887.887 0 0 0-.422.105.837.837 0 0 0-.44.873c.004.026.013.054.019.08-.112.2-.229.398-.353.592a3.748 3.748 0 0 1 .276-2.515h.012a.824.824 0 0 0 .187-.02c-.517.034-1.003.092-1.46.166a4.768 4.768 0 0 0 .19 3.471 12.5 12.5 0 0 1-3.565 3.017 12.96 12.96 0 0 0-1.62.276 1.85 1.85 0 0 1 1.664-.748l.101-1.075a2.992 2.992 0 0 0-2.152.645c-.515.412-.86.966-.995 1.586-.49.174-.97.376-1.435.606V17.21a13.653 13.653 0 0 0 4.875-3.165 6.672 6.672 0 0 0 1.934.156l-.077-1.078a5.415 5.415 0 0 1-1.003-.026c.261-.32.507-.65.733-.993-.756.204-1.4.456-1.948.71-.356.403-.74.785-1.155 1.143a6.888 6.888 0 0 1-.123-.45c-.347.216-.673.444-.976.682.052.168.106.336.166.5-.598.426-1.232.798-1.898 1.112-.58.626-1.112 1.273-1.654 1.907v.264a3.422 3.422 0 0 0-.135-.106 30.3 30.3 0 0 1-.733.82c.068.05.133.104.197.158a8.661 8.661 0 0 1-.517.174c-.492.498-1.024.974-1.635 1.406a9.271 9.271 0 0 0 2.823-.676v2.791H16.72v3.495c-.623.212-1.072.782-1.072 1.452 0 .85.717 1.54 1.602 1.54.883 0 1.6-.69 1.6-1.54 0-.648-.42-1.204-1.008-1.43v-2.439h3.323v3.501c-.616.214-1.059.782-1.059 1.45 0 .85.717 1.541 1.6 1.541.884 0 1.601-.69 1.601-1.54 0-.653-.424-1.209-1.018-1.435v-3.517h3.324v2.439c-.59.228-1.01.782-1.01 1.43 0 .85.717 1.54 1.602 1.54.882 0 1.599-.69 1.599-1.54 0-.67-.449-1.242-1.07-1.452v-3.495h-4.447v-1.714c3.012-1.68 6.626-1.943 9.823-.847.106.35.44.604.835.604.484 0 .874-.376.874-.842 0-.464-.39-.84-.874-.84a.884.884 0 0 0-.372.08 13.084 13.084 0 0 0-3.772-.738c.482-.364.935-.758 1.363-1.176.27.032.544.052.818.052ZM18.268 27.482c0 .542-.457.983-1.02.983s-1.02-.443-1.02-.983c0-.542.457-.982 1.02-.982s1.02.442 1.02.982Zm4.455 1.085c0 .542-.457.982-1.02.982s-1.02-.442-1.02-.982c0-.497.383-.905.877-.973h.285c.496.066.878.476.878.973Zm4.497-1.085c0 .542-.457.983-1.02.983s-1.02-.443-1.02-.983c0-.542.457-.982 1.02-.982s1.02.442 1.02.982Z" fill="#00783F"/>
  <path d="m58.061 13.319-4.406 10.19c-.745 1.727-2.498 2.853-4.44 2.853-.501 0-.834-.5-.624-.938l9.615-20.009c.374-.776 1.519-.78 1.899-.006l11.682 23.876c.195.398-.106.856-.563.856h-.179c-1.915 0-3.645-1.092-4.41-2.782l-6.354-14.056c-.425-.94-1.81-.93-2.22.016ZM79.512 15.668a4.533 4.533 0 0 0-.901-.559c-.279-.124-.634-.186-1.062-.186-.858 0-1.481.316-1.867.947-.387.63-.58 1.452-.58 2.464v8.028h-3.444v-14.26h3.444v1.705c.45-.62.97-1.116 1.562-1.488.59-.373 1.197-.559 1.818-.559.536 0 1.04.088 1.512.265.471.176.879.45 1.223.822l-1.705 2.82ZM97.714 19.233c0 1.57-.332 2.908-.997 4.014-.664 1.107-1.545 1.953-2.64 2.543a7.43 7.43 0 0 1-3.573.884c-1.094 0-2.07-.232-2.928-.698-.858-.464-1.566-1.132-2.125-1.998v2.386h-3.509V2.184h3.509V14.49c.556-.868 1.265-1.534 2.125-1.998.858-.464 1.834-.698 2.928-.698 1.288 0 2.478.294 3.573.884 1.095.588 1.974 1.436 2.64 2.542.665 1.105.997 2.443.997 4.014Zm-3.606 0c0-1.427-.44-2.537-1.319-3.333-.88-.797-1.921-1.193-3.122-1.193-.687 0-1.352.176-1.996.526a4.28 4.28 0 0 0-1.593 1.535c-.418.672-.627 1.492-.627 2.465 0 .972.21 1.792.627 2.464.418.672.95 1.184 1.593 1.535a4.105 4.105 0 0 0 1.996.526c1.201 0 2.242-.398 3.122-1.195.881-.794 1.32-1.906 1.32-3.33ZM99.087 19.232c0-1.466.349-2.758 1.047-3.875a7.276 7.276 0 0 1 2.848-2.618c1.2-.63 2.563-.947 4.087-.947 1.502 0 2.859.317 4.072.947 1.211.63 2.166 1.504 2.864 2.618.698 1.117 1.047 2.409 1.047 3.875 0 1.469-.349 2.76-1.047 3.875-.698 1.117-1.653 1.989-2.864 2.62-1.213.63-2.57.945-4.072.945-1.524 0-2.885-.314-4.087-.946a7.263 7.263 0 0 1-2.848-2.619c-.698-1.116-1.047-2.408-1.047-3.875Zm3.573 0c0 1.323.423 2.403 1.271 3.24.847.835 1.894 1.256 3.138 1.256 1.245 0 2.292-.419 3.139-1.257.848-.836 1.271-1.916 1.271-3.239 0-1.342-.423-2.428-1.271-3.254-.847-.827-1.894-1.24-3.139-1.24-1.244 0-2.291.413-3.138 1.24-.848.826-1.271 1.91-1.271 3.254ZM124.591 15.668a4.54 4.54 0 0 0-.901-.559c-.279-.124-.634-.186-1.062-.186-.858 0-1.481.316-1.867.947-.387.63-.58 1.452-.58 2.464v8.028h-3.444v-14.26h3.444v1.705c.451-.62.97-1.116 1.56-1.488.59-.373 1.197-.559 1.82-.559.536 0 1.04.088 1.512.265.471.176.879.45 1.223.822l-1.705 2.82Z" fill="#BF9000"/>
  <path d="M144.677 12.103h3.797l3.444 8.494 4.119-9.579 4.312 9.609 3.475-8.524h3.801l-6.919 15.25-4.667-9.609-4.441 9.608-6.921-15.25ZM170.404 15.822l-1.417-2.357c.688-.392 1.556-.774 2.607-1.146 1.051-.373 2.274-.559 3.668-.559 1.803 0 3.288.389 4.458 1.163 1.169.774 1.755 1.864 1.755 3.27V26.36h-3.411v-1.952c-.471.764-1.169 1.332-2.091 1.704a7.435 7.435 0 0 1-2.8.558c-.945 0-1.807-.176-2.591-.526a4.45 4.45 0 0 1-1.882-1.55c-.471-.682-.708-1.509-.708-2.48 0-1.385.505-2.486 1.512-3.302 1.008-.816 2.435-1.224 4.281-1.224.966 0 1.803.104 2.512.31.708.206 1.298.434 1.769.682v-1.736c0-.868-.295-1.477-.884-1.829-.59-.352-1.346-.526-2.269-.526-1.051 0-1.985.166-2.8.496-.818.33-1.387.61-1.709.837Zm1.094 6.107c0 .724.258 1.276.773 1.659.515.382 1.18.574 1.996.574 1.031 0 1.92-.304 2.672-.915.749-.61 1.125-1.462 1.125-2.556v-.216c-1.03-.454-2.179-.682-3.444-.682-1.094 0-1.888.192-2.382.574-.494.378-.74.9-.74 1.562ZM187.735 33.18h-3.508V12.102h3.508v2.387c.536-.888 1.234-1.576 2.092-2.06.857-.486 1.844-.729 2.962-.729 1.287 0 2.478.3 3.572.899 1.095.6 1.974 1.456 2.64 2.572.665 1.117.997 2.471.997 4.061 0 1.593-.332 2.945-.997 4.061-.664 1.117-1.545 1.969-2.64 2.557a7.428 7.428 0 0 1-3.572.884c-1.116 0-2.102-.238-2.962-.712-.858-.476-1.556-1.156-2.092-2.046v9.204Zm8.658-13.948c0-1.426-.441-2.526-1.319-3.3-.881-.775-1.922-1.163-3.122-1.163-.688 0-1.353.17-1.997.512-.644.34-1.175.843-1.593 1.505-.417.662-.627 1.478-.627 2.448 0 .973.21 1.789.627 2.449.418.662.949 1.162 1.593 1.502.644.34 1.309.513 1.997.513 1.2 0 2.241-.389 3.122-1.163.88-.778 1.319-1.878 1.319-3.303ZM143.361 12.493l-5.289-1.73a.33.33 0 0 1-.118-.569l.789-.666v-.03c-.721-.612-1.651-.92-2.794-.92-1.051 0-1.823.23-2.316.696-.496.466-.739 1.006-.739 1.628 0 .847.395 1.57 1.19 2.169.239.18.521.358.852.538 1.46 1.262 4.125 3.887 4.7 7.16.038.216.061.416.069.6-.044-.652-.237-1.192-.586-1.616-.397-.487-.962-.899-1.691-1.24a26.768 26.768 0 0 0-2.509-1.007 20.377 20.377 0 0 1-1.869-.744 9.153 9.153 0 0 1-1.961-1.21 6.33 6.33 0 0 1-1.548-1.815c-.407-.712-.61-1.576-.61-2.589 0-1.156.311-2.174.932-3.054.623-.877 1.467-1.565 2.526-2.061 1.064-.494 2.27-.744 3.621-.744 1.331 0 2.49.232 3.477.698.737.346 1.387.76 1.952 1.24.007.006.017.006.023 0l.692-.582c.201-.17.519-.066.571.188l1.089 5.276c.054.254-.2.466-.453.384Z" fill="#00783F"/>
  <path d="M144.123 20.929c0 1.346-.359 2.503-1.078 3.473a7.033 7.033 0 0 1-2.786 2.232 8.69 8.69 0 0 1-3.635.775c-1.331 0-2.554-.252-3.67-.76a9.887 9.887 0 0 1-2.947-2.031 11.035 11.035 0 0 1-1.118-1.296c-.594-.809-.336-1.947.575-2.449.79-.436 1.797-.158 2.341.546.47.61.977 1.134 1.515 1.572a4.901 4.901 0 0 0 1.909.96 4.572 4.572 0 0 0 1.258.18c.478.007 1.369.009 2.144-.463.008 0 .015-.006.023-.014.176-.098.34-.21.492-.338.632-.538.947-1.24.947-2.109v-.034a4.689 4.689 0 0 0-.077-.856c-.575-3.273-3.24-5.898-4.7-7.16.773.418 1.794.84 3.074 1.26.902.288 1.793.703 2.673 1.24a7.087 7.087 0 0 1 2.19 2.093c.583.86.87 1.919.87 3.179Z" fill="#BF9000"/>
  <path d="M82.772 35.598v5.934h1.02v-5.934h-1.02Zm.605.882h1.219c.352 0 .634.082.847.245.213.159.32.396.32.712 0 .317-.107.557-.32.72-.213.165-.495.247-.847.247h-1.219v.881h1.219c.444 0 .827-.073 1.15-.22a1.733 1.733 0 0 0 1.028-1.628c0-.378-.092-.703-.277-.974a1.716 1.716 0 0 0-.751-.636c-.323-.153-.706-.229-1.15-.229h-1.219v.882ZM87.127 39.582c0 .395.092.749.277 1.06.19.305.446.545.769.72.328.17.694.254 1.097.254.41 0 .775-.084 1.098-.254.323-.175.576-.415.76-.72.19-.311.286-.665.286-1.06 0-.401-.095-.754-.285-1.06a1.906 1.906 0 0 0-.761-.712 2.263 2.263 0 0 0-1.098-.262c-.403 0-.769.087-1.097.262-.323.17-.58.407-.77.712a2.008 2.008 0 0 0-.276 1.06Zm.96 0c0-.243.051-.458.155-.644.104-.187.245-.33.423-.433a1.2 1.2 0 0 1 .605-.152c.225 0 .427.05.605.152.179.102.32.246.424.433.103.186.155.401.155.644s-.051.458-.155.644c-.104.181-.245.325-.424.432a1.2 1.2 0 0 1-.605.153 1.2 1.2 0 0 1-.605-.153 1.184 1.184 0 0 1-.423-.432 1.303 1.303 0 0 1-.156-.644ZM91.585 37.632l1.858 4.17 1.193-2.627 1.253 2.628 1.858-4.17h-1.02l-.933 2.33-1.158-2.627-1.107 2.61-.924-2.314h-1.02ZM99.944 41.616c.461 0 .856-.087 1.184-.263.329-.18.6-.446.813-.796l-.813-.314c-.121.21-.276.365-.466.466a1.413 1.413 0 0 1-.675.153 1.16 1.16 0 0 1-.613-.153 1.005 1.005 0 0 1-.389-.449 1.68 1.68 0 0 1-.121-.712c0-.282.043-.52.13-.712.092-.192.219-.339.38-.44.167-.102.369-.153.605-.153.196 0 .366.042.51.127a.86.86 0 0 1 .345.356c.087.152.13.333.13.542 0 .04-.011.088-.034.144a.973.973 0 0 1-.052.136l.285-.39h-2.688v.636h3.492v-.11c.005-.051.008-.1.008-.144 0-.419-.078-.775-.233-1.069a1.587 1.587 0 0 0-.683-.686c-.294-.158-.651-.237-1.072-.237-.42 0-.786.084-1.097.254a1.76 1.76 0 0 0-.726.703c-.167.306-.25.664-.25 1.077 0 .407.083.763.25 1.068.167.305.403.543.709.712.31.17.668.254 1.071.254ZM103.799 37.632h-.924v3.9h.924v-3.9Zm1.184.975.458-.771a.764.764 0 0 0-.328-.229 1.198 1.198 0 0 0-.406-.068.952.952 0 0 0-.588.22 1.623 1.623 0 0 0-.458.577 1.864 1.864 0 0 0-.173.822l.311.178c0-.186.021-.347.061-.483a.684.684 0 0 1 .216-.33.587.587 0 0 1 .38-.12.69.69 0 0 1 .285.052.938.938 0 0 1 .242.152ZM107.684 41.616c.461 0 .855-.087 1.184-.263.328-.18.599-.446.812-.796l-.812-.314c-.121.21-.277.365-.467.466a1.41 1.41 0 0 1-.674.153 1.16 1.16 0 0 1-.614-.153 1.012 1.012 0 0 1-.389-.449 1.7 1.7 0 0 1-.121-.712c0-.282.044-.52.13-.712.092-.192.219-.339.38-.44.167-.102.369-.153.605-.153.196 0 .366.042.51.127.15.085.265.203.346.356.086.152.13.333.13.542 0 .04-.012.088-.035.144a.862.862 0 0 1-.052.136l.285-.39h-2.688v.636h3.492v-.11c.006-.051.009-.1.009-.144 0-.419-.078-.775-.234-1.069a1.585 1.585 0 0 0-.682-.686c-.294-.158-.651-.237-1.072-.237-.421 0-.787.084-1.098.254a1.762 1.762 0 0 0-.726.703c-.167.306-.25.664-.25 1.077 0 .407.083.763.25 1.068.167.305.404.543.709.712.311.17.668.254 1.072.254ZM113.604 34.92v6.611h.942V34.92h-.942Zm-3.292 4.662c0 .424.089.788.268 1.093.178.306.414.54.708.704.3.158.62.237.96.237.334 0 .625-.082.872-.245a1.65 1.65 0 0 0 .597-.704c.15-.305.224-.667.224-1.085 0-.424-.074-.785-.224-1.085a1.65 1.65 0 0 0-.597-.704 1.542 1.542 0 0 0-.872-.245c-.34 0-.66.082-.96.245-.294.159-.53.39-.708.696-.179.299-.268.664-.268 1.093Zm.968 0c0-.26.054-.483.164-.67.109-.186.253-.327.432-.423a1.27 1.27 0 0 1 .596-.145 1.124 1.124 0 0 1 .96.568c.115.181.172.404.172.67s-.057.492-.172.678a1.141 1.141 0 0 1-.96.56 1.27 1.27 0 0 1-.596-.145 1.095 1.095 0 0 1-.432-.423 1.295 1.295 0 0 1-.164-.67ZM119.202 34.92h-.942v6.611h.942V34.92Zm3.293 4.662c0-.43-.09-.794-.268-1.093a1.807 1.807 0 0 0-.709-.696 1.939 1.939 0 0 0-.959-.245c-.329 0-.62.082-.873.245a1.71 1.71 0 0 0-.605.704c-.144.3-.216.661-.216 1.085 0 .418.072.78.216 1.085.15.305.351.54.605.703.253.164.544.246.873.246.345 0 .665-.079.959-.237.294-.164.53-.398.709-.704.178-.305.268-.67.268-1.093Zm-.968 0c0 .26-.055.483-.164.67-.11.186-.254.327-.433.423a1.235 1.235 0 0 1-.596.145c-.184 0-.363-.048-.536-.145a1.2 1.2 0 0 1-.432-.415 1.322 1.322 0 0 1-.164-.678c0-.266.055-.489.164-.67a1.18 1.18 0 0 1 .432-.423c.173-.097.352-.145.536-.145.219 0 .418.048.596.145.179.096.323.237.433.423.109.187.164.41.164.67ZM126.775 37.632h-1.003l-1.244 3.06.44.026-1.27-3.086h-1.072l1.608 3.442-1.046 2.322h.994l2.593-5.764ZM131.264 38.7l1.919 2.831h1.236l-2.057-2.83h-1.098Zm-1.253-3.102v5.934h1.02v-5.934h-1.02Zm.605.865h1.219c.236 0 .44.04.613.118a.95.95 0 0 1 .406.34.956.956 0 0 1 .147.542c0 .209-.049.39-.147.542a.95.95 0 0 1-.406.34 1.56 1.56 0 0 1-.613.11h-1.219v.83h1.262c.443 0 .827-.076 1.149-.229.323-.152.573-.367.752-.644a1.72 1.72 0 0 0 .277-.975 1.68 1.68 0 0 0-.277-.966 1.772 1.772 0 0 0-.752-.644c-.322-.153-.706-.229-1.149-.229h-1.262v.865ZM134.771 39.582c0 .395.092.749.276 1.06.19.305.447.545.769.72.329.17.695.254 1.098.254.409 0 .775-.084 1.098-.254.322-.175.576-.415.76-.72.19-.311.285-.665.285-1.06 0-.401-.095-.754-.285-1.06a1.906 1.906 0 0 0-.76-.712 2.265 2.265 0 0 0-1.098-.262c-.403 0-.769.087-1.098.262a1.97 1.97 0 0 0-.769.712 2.012 2.012 0 0 0-.276 1.06Zm.959 0a1.3 1.3 0 0 1 .156-.644c.103-.187.244-.33.423-.433a1.2 1.2 0 0 1 .605-.152c.225 0 .426.05.605.152s.32.246.423.433a1.3 1.3 0 0 1 .156.644 1.3 1.3 0 0 1-.156.644c-.103.181-.244.325-.423.432-.179.102-.38.153-.605.153-.225 0-.426-.05-.605-.153a1.174 1.174 0 0 1-.423-.432 1.3 1.3 0 0 1-.156-.644ZM140.859 34.92h-.942v6.611h.942V34.92Zm3.293 4.662c0-.43-.09-.794-.268-1.093a1.807 1.807 0 0 0-.709-.696 1.939 1.939 0 0 0-.959-.245c-.329 0-.62.082-.873.245a1.71 1.71 0 0 0-.605.704c-.144.3-.216.661-.216 1.085 0 .418.072.78.216 1.085.15.305.351.54.605.703.253.164.544.246.873.246.345 0 .665-.079.959-.237.294-.164.53-.398.709-.704.178-.305.268-.67.268-1.093Zm-.968 0c0 .26-.055.483-.164.67-.11.186-.254.327-.433.423a1.235 1.235 0 0 1-.596.145c-.184 0-.363-.048-.536-.145a1.2 1.2 0 0 1-.432-.415 1.322 1.322 0 0 1-.164-.678c0-.266.055-.489.164-.67a1.18 1.18 0 0 1 .432-.423c.173-.097.352-.145.536-.145.219 0 .418.048.596.145.179.096.323.237.433.423.109.187.164.41.164.67ZM146 40.006v-2.374h-.959v2.476c0 .463.118.83.354 1.101.242.272.585.407 1.029.407.276 0 .512-.056.708-.17.202-.118.366-.29.493-.516v.602h.933v-3.9h-.933v2.374a.9.9 0 0 1-.113.458.79.79 0 0 1-.311.305.928.928 0 0 1-.458.11c-.253 0-.44-.076-.561-.229-.121-.153-.182-.367-.182-.644ZM150.675 37.632h-.925v3.9h.925v-3.9Zm1.184.975.458-.771a.77.77 0 0 0-.328-.229 1.204 1.204 0 0 0-.407-.068.951.951 0 0 0-.587.22 1.612 1.612 0 0 0-.458.577 1.85 1.85 0 0 0-.173.822l.311.178c0-.186.02-.347.06-.483a.692.692 0 0 1 .217-.33.583.583 0 0 1 .38-.12c.115 0 .21.018.285.052a.955.955 0 0 1 .242.152ZM155.516 39.158v2.373h.959v-2.483c0-.463-.118-.828-.354-1.093-.237-.272-.579-.407-1.029-.407-.271 0-.507.056-.709.17a1.302 1.302 0 0 0-.484.516v-.602h-.942v3.9h.942v-2.374c0-.175.035-.328.104-.458a.733.733 0 0 1 .311-.305.948.948 0 0 1 .467-.11c.248 0 .432.074.553.22.121.147.182.365.182.653ZM158.255 40.32c0-.125.028-.23.086-.314a.592.592 0 0 1 .277-.195c.121-.051.279-.077.475-.077.225 0 .438.029.639.085.202.057.392.147.571.271v-.466a1.025 1.025 0 0 0-.268-.203 1.929 1.929 0 0 0-.484-.203 2.417 2.417 0 0 0-.683-.085c-.495 0-.878.113-1.149.339-.271.22-.406.52-.406.898 0 .266.063.492.19.678.126.187.296.328.51.424.213.096.443.144.691.144.23 0 .455-.04.674-.118a1.32 1.32 0 0 0 .553-.382.912.912 0 0 0 .225-.627l-.138-.509a.904.904 0 0 1-.51.84c-.15.073-.32.11-.51.11-.144 0-.274-.023-.389-.068a.572.572 0 0 1-.259-.204.597.597 0 0 1-.095-.339Zm-.294-1.67c.063-.04.152-.088.268-.145.115-.062.253-.113.414-.152.168-.045.343-.068.528-.068.121 0 .233.011.337.034.103.023.193.06.268.11.08.051.141.116.181.195.04.08.061.181.061.305v2.602h.916v-2.78c0-.26-.072-.48-.216-.66a1.244 1.244 0 0 0-.588-.408 2.43 2.43 0 0 0-.864-.144c-.375 0-.703.051-.985.153a4.333 4.333 0 0 0-.701.313l.381.645ZM164.691 35.598v5.934h3.422v-.899h-2.402v-5.035h-1.02ZM169.362 40.32c0-.125.028-.23.086-.314a.592.592 0 0 1 .277-.195c.121-.051.279-.077.475-.077.225 0 .438.029.639.085.202.057.392.147.571.271v-.466a1.025 1.025 0 0 0-.268-.203 1.929 1.929 0 0 0-.484-.203 2.417 2.417 0 0 0-.683-.085c-.495 0-.878.113-1.149.339-.271.22-.406.52-.406.898 0 .266.063.492.19.678.126.187.296.328.51.424.213.096.443.144.691.144.23 0 .455-.04.674-.118a1.32 1.32 0 0 0 .553-.382.912.912 0 0 0 .225-.627l-.138-.509a.904.904 0 0 1-.51.84c-.15.073-.32.11-.51.11-.144 0-.274-.023-.389-.068a.572.572 0 0 1-.259-.204.597.597 0 0 1-.095-.339Zm-.294-1.67c.063-.04.152-.088.268-.145.115-.062.253-.113.414-.152.168-.045.343-.068.528-.068.121 0 .233.011.337.034.103.023.193.06.268.11.08.051.141.116.181.195.04.08.061.181.061.305v2.602h.916v-2.78c0-.26-.072-.48-.216-.66a1.244 1.244 0 0 0-.588-.408 2.43 2.43 0 0 0-.864-.144c-.375 0-.703.051-.985.153a4.333 4.333 0 0 0-.701.313l.381.645ZM174.036 34.92h-.942v6.611h.942V34.92Zm3.293 4.662c0-.43-.089-.794-.268-1.093a1.805 1.805 0 0 0-.708-.696 1.94 1.94 0 0 0-.96-.245c-.328 0-.619.082-.873.245a1.716 1.716 0 0 0-.605.704c-.144.3-.216.661-.216 1.085 0 .418.072.78.216 1.085.15.305.352.54.605.703.254.164.545.246.873.246.346 0 .666-.079.96-.237.293-.164.53-.398.708-.704.179-.305.268-.67.268-1.093Zm-.968 0c0 .26-.055.483-.164.67a1.102 1.102 0 0 1-.432.423 1.24 1.24 0 0 1-.596.145c-.185 0-.363-.048-.536-.145a1.2 1.2 0 0 1-.432-.415 1.313 1.313 0 0 1-.165-.678c0-.266.055-.489.165-.67a1.18 1.18 0 0 1 .432-.423c.173-.097.351-.145.536-.145.218 0 .417.048.596.145.178.096.323.237.432.423.109.187.164.41.164.67ZM178.4 40.243l-.545.543c.115.146.259.288.432.423.173.13.372.238.597.322.224.08.475.12.752.12.432 0 .775-.111 1.028-.331.259-.226.389-.523.389-.89 0-.238-.055-.43-.164-.577a1.366 1.366 0 0 0-.441-.373 4.688 4.688 0 0 0-.614-.28 13.184 13.184 0 0 1-.44-.178 1.322 1.322 0 0 1-.312-.186.34.34 0 0 1-.112-.246c0-.107.043-.19.13-.246a.606.606 0 0 1 .337-.084c.196 0 .386.048.57.144.185.096.34.22.467.373l.518-.543a1.807 1.807 0 0 0-.397-.347 2.143 2.143 0 0 0-.527-.246 1.964 1.964 0 0 0-.614-.093c-.242 0-.469.04-.683.118-.207.074-.374.19-.501.348a.948.948 0 0 0-.181.593.96.96 0 0 0 .164.577c.115.152.259.277.432.373.179.09.357.17.536.237.178.062.334.124.466.186a.854.854 0 0 1 .312.212c.074.08.112.175.112.288a.36.36 0 0 1-.147.306c-.092.073-.222.11-.389.11-.132 0-.265-.026-.397-.077a1.561 1.561 0 0 1-.389-.22 3.083 3.083 0 0 1-.389-.356Z" fill="#C89211"/>
</svg>
